<svg xmlns="http://www.w3.org/2000/svg" width="1440" height="420" viewBox="0 0 1440 420" role="img" aria-labelledby="title desc">
  <!-- Hallmark · pre-emit critique: P5 H5 E5 S5 R5 V5 -->
  <title id="title">De una operación fragmentada a una operación confiable</title>
  <desc id="desc">Trabajo, datos y sistemas convergen mediante un límite arquitectónico definido donde estado, decisiones y responsabilidad forman un modelo operativo gobernado que produce resultados controlados, operables y escalables.</desc>
  <defs>
    <style>
      :root { color-scheme: light dark; --visual-ink:#F2EFE9; --visual-muted:#A9AAA5; --visual-faint:#575B59; --visual-rule:#3D4341; --visual-boundary:#7E827E; --visual-surface:#151816; --visual-accent:#D8C5A6; --visual-highlight:#F4E8D3; }
      @media (prefers-color-scheme: light) { :root { --visual-ink:#1C1D1B; --visual-muted:#666762; --visual-faint:#A6A59E; --visual-rule:#C8C5BC; --visual-boundary:#77766F; --visual-surface:#F0ECE4; --visual-accent:#8C7655; --visual-highlight:#5F4D35; } }
      .display { font-family:Manrope,sans-serif; } .body { font-family:"IBM Plex Sans",sans-serif; }
      .ink { fill:var(--visual-ink); } .muted { fill:var(--visual-muted); } .faint-fill { fill:var(--visual-faint); }
      .rule { stroke:var(--visual-rule); } .guide { stroke:var(--visual-faint); }
    </style>
    <linearGradient id="flow" x1="0" y1="0" x2="1" y2="0"><stop stop-color="var(--visual-faint)" stop-opacity=".36"/><stop offset=".62" stop-color="var(--visual-accent)" stop-opacity=".78"/><stop offset="1" stop-color="var(--visual-highlight)"/></linearGradient>
    <linearGradient id="plate" x1="0" y1="0" x2="1" y2="1"><stop stop-color="var(--visual-highlight)" stop-opacity=".72"/><stop offset=".58" stop-color="var(--visual-accent)" stop-opacity=".32"/><stop offset="1" stop-color="var(--visual-faint)" stop-opacity=".08"/></linearGradient>
    <radialGradient id="architecturalDepth" cx="50%" cy="50%" r="50%"><stop stop-color="var(--visual-accent)" stop-opacity=".22"/><stop offset=".56" stop-color="var(--visual-accent)" stop-opacity=".08"/><stop offset="1" stop-color="var(--visual-accent)" stop-opacity="0"/></radialGradient>
    <filter id="depthGlow" x="-45%" y="-70%" width="190%" height="240%"><feGaussianBlur stdDeviation="12"/></filter>
  </defs>
  <g class="body">
    <g class="muted" font-size="11" font-weight="600" letter-spacing="1.3"><text x="52" y="42">OPERACIÓN FRAGMENTADA</text><text x="580" y="42">LÍMITE DEFINIDO</text><text x="1028" y="42">OPERACIÓN CONFIABLE</text></g>
    <g class="rule" fill="none" stroke-width="1" stroke-linecap="round"><path d="M52 54H1388"/><path d="M540 54V66"/><path d="M968 54V66"/></g>
    <g class="ink" font-size="14" font-weight="500"><text x="52" y="104">Trabajo</text><text x="52" y="197">Datos</text><text x="52" y="290">Sistemas</text></g>
    <g class="guide" fill="none" stroke-width="2" stroke-linecap="round"><path d="M52 122H192"/><path d="M52 215H192"/><path d="M52 308H192"/></g>
    <g fill="var(--visual-ink)"><circle cx="196" cy="122" r="3.5"/><circle cx="196" cy="215" r="3.5"/><circle cx="196" cy="308" r="3.5"/></g>
    <g class="faint-fill" opacity=".72"><rect x="218" y="102" width="6" height="6"/><rect x="218" y="145" width="6" height="6"/><rect x="218" y="195" width="6" height="6"/><rect x="218" y="238" width="6" height="6"/><rect x="218" y="285" width="6" height="6"/><rect x="218" y="328" width="6" height="6"/></g>
    <g fill="none" stroke-linecap="round">
      <g class="guide" stroke-width="1.1" opacity=".28"><path d="M224 105C340 105 396 196 536 223"/><path d="M224 148C350 151 405 210 536 223"/><path d="M224 198C356 198 411 205 536 223"/><path d="M224 241C351 240 414 226 536 223"/><path d="M224 288C350 286 407 244 536 223"/><path d="M224 331C342 330 399 253 536 223"/></g>
      <path d="M224 122C340 122 389 214 536 223" stroke="url(#flow)" stroke-width="2.2"/><path d="M224 215C356 215 416 206 536 223" stroke="url(#flow)" stroke-width="1.8" opacity=".78"/><path d="M224 308C344 308 405 246 536 223" stroke="url(#flow)" stroke-width="2.2"/>
    </g>
    <g aria-hidden="true"><path d="M530 223l10-10 10 10-10 10z" fill="var(--visual-highlight)"/><circle cx="540" cy="223" r="2.5" fill="var(--visual-surface)"/><path d="M550 223H576" stroke="var(--visual-accent)" stroke-width="1.5"/></g>
    <path d="M596 72H904L924 92V350L904 370H596L576 350V92Z" fill="var(--visual-surface)" fill-opacity=".34" stroke="var(--visual-boundary)" stroke-width="1.35"/>
    <path d="M588 100V84H604M896 84H912V100M912 342V358H896M604 358H588V342" fill="none" stroke="var(--visual-accent)" stroke-opacity=".5" stroke-width="1"/>
    <text x="750" y="108" text-anchor="middle" class="display ink" font-size="20" font-weight="600">Modelo operativo</text>
    <g transform="translate(750 197)">
      <ellipse cx="0" cy="-4" rx="88" ry="46" fill="url(#architecturalDepth)" filter="url(#depthGlow)"/>
      <g fill="none" stroke="var(--visual-boundary)" stroke-width="1" stroke-opacity=".42"><path d="M0-58l92 27L0-4l-92-27z"/><path d="M0-34l92 27L0 20-92-7z"/><path d="M0-10l92 27L0 44-92 17z"/><path d="M0 14l92 27L0 68-92 41z"/></g>
      <path d="M0-42l92 27L0 12-92-15z" fill="url(#plate)" stroke="var(--visual-accent)" stroke-opacity=".58"/><path d="M0-74V82" stroke="var(--visual-boundary)" stroke-opacity=".34" stroke-dasharray="2 5"/><circle cy="-15" r="4" fill="var(--visual-highlight)"/><circle cy="38" r="2.5" fill="var(--visual-accent)"/>
    </g>
    <g text-anchor="middle"><g class="ink" font-size="13" font-weight="500"><text x="642" y="326">Estado</text><text x="750" y="326">Decisiones</text><text x="858" y="326">Responsabilidad</text></g></g>
    <g aria-hidden="true"><path d="M924 223H958" stroke="var(--visual-accent)" stroke-width="1.5"/><path d="M958 223l10-10 10 10-10 10z" fill="var(--visual-highlight)"/><circle cx="968" cy="223" r="2.5" fill="var(--visual-surface)"/></g>
    <g fill="none" stroke="var(--visual-accent)" stroke-width="2.8" stroke-linecap="round"><path d="M978 223C1060 223 1084 146 1208 146"/><path d="M978 223H1208" opacity=".72"/><path d="M978 223C1060 223 1084 300 1208 300" opacity=".84"/></g>
    <g fill="var(--visual-accent)"><path d="M1216 146l-10-5v10z"/><path d="M1216 223l-10-5v10z"/><path d="M1216 300l-10-5v10z"/></g>
    <g class="ink" font-size="14" font-weight="500"><text x="1232" y="151">Controlada</text><text x="1232" y="228">Operable</text><text x="1232" y="305">Escalable</text></g>
    <g class="rule" fill="none" stroke-width="1"><path d="M1232 162H1368"/><path d="M1232 239H1368"/><path d="M1232 316H1368"/></g>
  </g>
</svg>
